<?xml version="1.0" standalone="no"?>
<!DOCTYPE svg PUBLIC "-//W3C//DTD SVG 20010904//EN"
 "http://www.w3.org/TR/2001/REC-SVG-20010904/DTD/svg10.dtd">
<svg version="1.0" xmlns="http://www.w3.org/2000/svg"
 width="500.000000pt" height="500.000000pt" viewBox="0 0 500.000000 500.000000"
 preserveAspectRatio="xMidYMid meet">
<metadata>
Created by potrace 1.11, written by Peter Selinger 2001-2013
</metadata>
<g transform="translate(0.000000,500.000000) scale(0.100000,-0.100000)"
fill="#000000" stroke="none">
<path d="M0 2500 l0 -2500 2500 0 2500 0 0 2500 0 2500 -2500 0 -2500 0 0
-2500z m3500 1926 c30 -10 96 -39 145 -64 73 -37 108 -64 186 -142 81 -81 102
-109 142 -190 88 -182 81 -54 84 -1474 4 -1428 10 -1320 -77 -1407 -44 -44
-118 -79 -166 -79 -9 0 -13 -43 -16 -167 -3 -162 -4 -170 -30 -215 -66 -112
-134 -138 -358 -138 -188 0 -241 12 -305 71 -76 70 -89 110 -93 291 l-4 158
-514 0 -514 0 0 -157 c0 -145 -2 -162 -24 -209 -13 -27 -43 -67 -67 -87 -64
-55 -116 -67 -299 -67 -201 0 -245 12 -315 83 -67 69 -75 101 -75 285 l0 150
-37 7 c-98 18 -187 91 -211 173 -9 29 -12 351 -12 1283 0 1216 1 1246 20 1329
72 299 320 531 624 583 55 9 287 11 967 7 833 -5 898 -7 949 -24z m-2820
-1401 l0 -395 -75 0 c-91 0 -138 17 -165 62 -19 31 -20 50 -20 331 0 320 2
337 52 369 33 22 52 26 136 27 l72 1 0 -395z m3826 375 c72 -35 74 -46 74
-377 0 -260 -2 -292 -18 -322 -29 -54 -73 -72 -167 -69 l-80 3 -3 380 c-1 209
0 386 3 392 8 22 141 17 191 -7z"/>
<path d="M1980 4065 l0 -125 514 -2 515 -3 3 128 3 127 -517 0 -518 0 0 -125z"/>
<path d="M1200 2895 l0 -775 1300 0 1300 0 0 775 0 775 -1300 0 -1300 0 0
-775z m556 276 c48 -22 83 -66 91 -116 l6 -35 -41 0 c-22 0 -48 -3 -56 -6 -12
-5 -19 3 -27 25 -6 17 -19 36 -29 41 -29 15 -113 12 -138 -6 -50 -35 -11 -71
112 -103 133 -35 185 -81 193 -168 7 -70 -27 -129 -92 -163 -42 -21 -63 -25
-135 -25 -74 0 -91 4 -130 27 -47 27 -83 78 -95 136 -5 27 -4 32 12 32 10 0
35 3 55 6 34 6 38 4 51 -27 23 -55 51 -73 112 -73 43 -1 58 4 79 23 30 28 33
61 9 83 -10 9 -61 27 -113 42 -110 31 -158 64 -179 122 -21 59 -8 111 40 156
43 41 55 45 159 46 54 1 87 -4 116 -17z m342 -106 c-1 -63 -1 -115 2 -115 3 0
52 52 109 115 l104 115 81 0 81 0 -103 -103 c-56 -56 -102 -106 -102 -110 0
-5 45 -79 101 -165 56 -85 103 -162 106 -169 4 -10 -11 -13 -65 -13 -82 0 -71
-10 -168 158 l-59 102 -44 -44 -45 -45 0 -83 -1 -83 -57 -3 -58 -3 0 281 0
280 61 0 61 0 -4 -115z m580 0 c-2 -63 -1 -115 2 -115 3 0 52 52 110 115 l103
115 81 0 81 0 -75 -77 c-42 -43 -88 -92 -104 -109 l-28 -32 102 -157 c56 -86
104 -163 107 -171 4 -11 -9 -14 -65 -14 -82 0 -71 -10 -168 157 l-58 103 -43
-42 -42 -41 -3 -86 -3 -86 -57 -3 -58 -3 0 281 0 280 61 0 60 0 -3 -115z m577
-83 c0 -171 2 -202 17 -224 23 -35 79 -51 131 -37 60 16 67 43 67 269 l0 190
61 0 62 0 -5 -212 c-6 -220 -12 -254 -51 -296 -42 -45 -76 -56 -172 -57 -77 0
-96 4 -133 25 -82 46 -87 63 -90 318 l-3 222 58 0 58 0 0 -198z"/>
<path d="M1347 1905 c-185 -68 -266 -280 -177 -461 55 -113 158 -174 293 -174
168 0 306 127 323 299 4 34 3 61 -1 61 -4 0 -20 -11 -37 -25 -115 -97 -298 -9
-298 143 0 53 19 99 54 131 14 14 26 28 26 33 0 13 -142 8 -183 -7z"/>
<path d="M3487 1889 c62 -66 78 -141 44 -214 -51 -113 -188 -145 -290 -68
l-34 26 5 -64 c14 -173 151 -299 326 -299 90 0 154 24 218 83 141 128 148 332
16 470 -61 64 -123 90 -227 95 l-90 4 32 -33z"/>
<path d="M2418 1661 c-45 -9 -88 -36 -88 -56 0 -24 60 -48 131 -53 91 -6 154
5 186 32 l26 23 -20 20 c-35 35 -145 51 -235 34z"/>
</g>
</svg>
